<?xml version="1.0" encoding="utf-8"?>
<!-- Generator: Adobe Illustrator 25.2.1, SVG Export Plug-In . SVG Version: 6.00 Build 0)  -->
<svg version="1.1" id="AlbumsViewIcon" xmlns="http://www.w3.org/2000/svg" xmlns:xlink="http://www.w3.org/1999/xlink" x="0px"
	 y="0px" viewBox="0 0 500 500" style="enable-background:new 0 0 500 500;" xml:space="preserve">
<style type="text/css">
	.st0{fill:#999999;stroke:#000000;stroke-width:7;stroke-miterlimit:10;}
	.st1{fill:none;stroke:#000000;stroke-width:13;stroke-miterlimit:10;}
	.st2{fill:#F2F2F2;}
	.st3{fill:none;stroke:#000000;stroke-width:4;stroke-miterlimit:10;}
	.st4{fill:none;stroke:#000000;stroke-width:3;stroke-miterlimit:10;}
</style>
<g>
	<path class="st0" d="M480.1,495.8H296.6c-8.5,0-15.4-6.9-15.4-15.4V296.9c0-8.5,6.9-15.4,15.4-15.4h183.5c8.5,0,15.4,6.9,15.4,15.4
		v183.5C495.5,488.8,488.6,495.8,480.1,495.8z"/>
	<path class="st0" d="M204.2,496H19.6c-8.5,0-15.4-6.9-15.4-15.4V296c0-8.5,6.9-15.4,15.4-15.4h184.6c8.5,0,15.4,6.9,15.4,15.4
		v184.6C219.7,489.1,212.7,496,204.2,496z"/>
	<path class="st0" d="M480.6,220.6H296.2c-8.5,0-15.4-6.9-15.4-15.4V20.8c0-8.5,6.9-15.4,15.4-15.4h184.4c8.5,0,15.4,6.9,15.4,15.4
		v184.4C496,213.7,489.1,220.6,480.6,220.6z"/>
	<path class="st0" d="M204.2,220.5H20.1c-8.5,0-15.4-6.9-15.4-15.4V21c0-8.5,6.9-15.4,15.4-15.4h184.1c8.5,0,15.4,6.9,15.4,15.4
		v184.1C219.7,213.6,212.7,220.5,204.2,220.5z"/>
</g>
<g>
	<circle class="st1" cx="250" cy="250" r="173"/>
	<g>
		<g>
			<path class="st2" d="M250,77c-95.5,0-173,77.5-173,173s77.5,173,173,173s173-77.5,173-173S345.5,77,250,77z M250,288
				c-21,0-38-17-38-38s17-38,38-38s38,17,38,38S271,288,250,288z"/>
		</g>
		<g>
			<path class="st3" d="M250,77c-95.5,0-173,77.5-173,173s77.5,173,173,173s173-77.5,173-173S345.5,77,250,77z M250,288
				c-21,0-38-17-38-38s17-38,38-38s38,17,38,38S271,288,250,288z"/>
		</g>
	</g>
	<g>
		<path class="st4" d="M205.3,170.5c-15.3,9.2-27.7,23-35.4,39.5"/>
		<path class="st4" d="M214.5,137.7c-36.5,12.2-65.1,42.6-75.3,80.8"/>
		<path class="st4" d="M238.4,101c-69.9,5.8-125.8,63-132.3,135.1"/>
	</g>
</g>
</svg>
