<?xml version="1.0" encoding="utf-8"?>
<!-- Generator: Adobe Illustrator 25.2.1, SVG Export Plug-In . SVG Version: 6.00 Build 0)  -->
<svg version="1.1" id="MusicsViewIcon" xmlns="http://www.w3.org/2000/svg" xmlns:xlink="http://www.w3.org/1999/xlink" x="0px"
	 y="0px" viewBox="0 0 500 500" style="enable-background:new 0 0 500 500;" xml:space="preserve">
<style type="text/css">
	.st0{fill:#808080;stroke:#000000;stroke-width:7;stroke-miterlimit:10;}
	.st1{fill:#CCCCCC;stroke:#000000;stroke-width:9;stroke-miterlimit:10;}
</style>
<g>
	<path class="st0" d="M460,474.8H293.6c-8.5,0-15.4-6.9-15.4-15.4V292.9c0-8.5,6.9-15.4,15.4-15.4H460c8.5,0,15.4,6.9,15.4,15.4
		v166.4C475.4,467.9,468.5,474.8,460,474.8z"/>
	<path class="st0" d="M206.1,475H38.6c-8.5,0-15.4-6.9-15.4-15.4V292.1c0-8.5,6.9-15.4,15.4-15.4h167.4c8.5,0,15.4,6.9,15.4,15.4
		v167.4C221.5,468.1,214.6,475,206.1,475z"/>
	<path class="st0" d="M460.4,221.5H293.2c-8.5,0-15.4-6.9-15.4-15.4V38.8c0-8.5,6.9-15.4,15.4-15.4h167.2c8.5,0,15.4,6.9,15.4,15.4
		v167.2C475.8,214.6,468.9,221.5,460.4,221.5z"/>
	<path class="st0" d="M206.1,221.5h-167c-8.5,0-15.4-6.9-15.4-15.4V39c0-8.5,6.9-15.4,15.4-15.4h167c8.5,0,15.4,6.9,15.4,15.4v167
		C221.5,214.6,214.6,221.5,206.1,221.5z"/>
</g>
<path class="st1" d="M318.5,78.6c-0.9,0-1.7,0.1-2.7,0.3c-2.6,0.6-5.1,2.1-7.6,4.4c-0.9,0.9-1.7,1.9-2.4,3c-1.1,1.7-2.1,3.2-2.8,5
	c-0.8,2-1.5,4.1-2.2,6.1l-0.6,1.8l-0.6,1.6l-0.2,0.6c-0.6,1.7-1.1,3.4-1.7,5c-0.4,1.3-0.8,2.7-1.2,4c-0.3,0.9-0.5,1.9-0.8,2.8
	l-1,3.4l-1.3,4.3c-0.4,1.5-0.9,3-1.4,4.5l-0.7,2.2c-0.7,2.2-1.2,4.6-1.7,6.7l-0.2,0.8c-0.5,2.1-1,4.3-1.6,6.4
	c-0.7,2.8-1.4,5.6-2,8.4c-0.1,0.6-0.3,1.3-0.4,1.9c-0.4,1.6-0.7,3.3-1.3,4.9c-0.8,2.4-1.6,4.8-2.3,7.1c-2.3,7.2-4.8,14.8-7.4,22.2
	c-1.9,5.2-4,10.4-5.9,15.2c-1.6,4-3.2,8-4.7,12.1c-3.6,9.6-7.1,19.4-10.4,29.3c-0.9,2.8-1.9,5.5-2.8,8.3c-0.7,2.1-1.4,4.3-2.2,6.4
	c-1.7,5-3.2,10.3-4.4,14.2c-0.6,1.9-1.1,3.9-1.6,6.5c-0.1,0.6-0.2,1.1-0.4,1.7l-0.1-0.2c-5-4-11-7.5-18.9-11
	c-6.3-2.8-13.2-5.2-20.6-6.9c-3.5-0.9-7.1-1.5-10.2-2.1l-4.4-0.8l-4-0.7c-0.4-0.1-1.2-0.2-1.6-0.2l-0.6-0.1l-2.6-0.3l-2.8-0.3
	l-1-0.1l-1-0.1c-1.8-0.2-3.7-0.5-5.5-0.5l-4.9-0.2l-4.9-0.2c-1.3-0.1-2.7-0.1-4-0.1c-4,0-8.1,0.2-12.8,0.8
	c-7.4,0.8-14.8,2.6-21.9,5.2c-3,1.1-6.2,2.6-10,4.5c-3.6,1.9-6.6,3.8-9.2,5.9c-5.1,4.1-9.6,9.5-14.3,16.9c-4,6.3-6.9,13.2-8.6,20.4
	c-0.8,3.1-1.3,6.5-1.6,10.9c-0.3,3.7-0.3,7.5,0,11.2c0.5,6.7,2.2,13.8,4.9,21.4c2.9,8.1,6,14.4,9.6,19.8c4.5,6.7,10.4,12.3,15,16.4
	c5.1,4.6,11,8.8,17.8,12.9c3.4,2,6.2,3.6,8.7,4.9c3.4,1.8,7,3.1,10.9,4.5c7,2.5,14.2,4.7,21.5,6.4c7.7,1.8,15.4,2.9,22.8,3.1
	c1.2,0,2.4,0.1,3.6,0.1c2.3,0,4.8-0.1,7.3-0.3c1.9-0.1,3.7-0.3,5.5-0.5l0.8-0.1c1.3-0.1,2.6-0.3,3.8-0.5l6-1.1l3-0.5
	c2.8-0.5,5.5-1.1,7.8-1.7l1.4-0.3l0.2,0c1.7-0.4,3.6-0.8,5.3-1.4c0.7-0.2,1.4-0.4,2.1-0.6l0.3-0.1c1.6-0.5,3.2-1,4.7-1.5
	c1.4-0.6,2.8-1.1,4.3-1.6c2.2-0.8,4.6-1.9,7.6-3.5c3-1.6,5.7-3.6,8.1-5.9c2.2-2.2,3.5-5.5,4-9.9c0.3-3.6,0.1-7.3-0.1-10.6l-0.1-1.3
	c-0.1-0.9-0.1-1.8-0.2-2.7l-0.1-1c-0.1-1.1-0.2-2.1-0.2-3.2c-0.3-5.3-0.6-10.8-0.9-16.9c-0.1-1.3-0.1-2.7,0-4l0-1.6c0-0.7,0-1.3,0-2
	c0-1.3-0.1-2.8,0-4.2l0.3-4.6l0.6-8.7c0.3-2.5,0.5-5.1,0.8-7.6l0.1-1.3l0-0.3c0.1-1.4,0.3-2.9,0.5-4.3l0.6-4.1l0-0.3
	c0.5-3.5,1-7.1,1.6-10.6c0.2-1.4,0.5-2.8,0.7-4.3l0.1-0.4c0.6-3.5,1.2-7.1,1.9-10.6l2.2-10.4c0.1-0.5,0.2-1.1,0.3-1.6
	c0.3-1.3,0.5-2.5,0.8-3.7l2.4-9.1c0.2-0.8,0.4-1.6,0.6-2.3c0.4-1.5,0.8-3,1.2-4.5c0.7-2.5,1.5-5,2.2-7.5l1.1-3.8l1.1-3.8
	c1.2-4.3,2.6-8.7,3.9-12.6l0.5-1.5l2.4-7.7l2.5-7.7c1.9-5.9,3.7-11.7,5.5-17.6c0.7-2.3,1.4-4.5,2.1-6.7l0.6-1.8
	c0.5,0.7,1.1,1.3,1.7,2c0.5,0.5,0.9,1,1.4,1.5c0.7,0.8,1.6,1.6,2.4,2.5l0.3,0.3c0.3,0.3,0.6,0.5,0.8,0.8c1,1,2,1.9,3,2.9l3.1,2.9
	c5.8,5.5,11.9,11.1,17.2,17.2c5.8,7,10.8,14.6,14.8,22.7c2.9,6.4,4.5,13.3,5.5,18.5c1.6,9.1,2.2,17.2,1.7,24.6
	c-0.4,3.4-1,6.9-1.9,10.6c-0.9,3.7-2.1,7.3-3.3,10.6l-0.7,1.7c-1.3,3.6-2.9,7.6-4.6,11.5c-0.5,1-1,2.1-1.5,3.1
	c-0.1,0.3-0.3,0.6-0.5,0.8l-0.1,0.2c-0.2,0.3-0.3,0.5-0.5,0.8c-1.4,2.7-0.8,6.2,1.4,8.3c0.8,0.8,2,1.4,3.1,1.6
	c0.4,0.1,0.8,0.1,1.2,0.1c0.7,0,1.4-0.1,2.2-0.3l0.6-0.1l0.9-0.4l0.6-0.3c0.4-0.2,0.8-0.4,1.2-0.6c0.5-0.2,0.9-0.5,1.3-0.8l0.6-0.3
	c0.7-0.4,1.4-0.9,2.1-1.3l1.2-0.8c0.9-0.5,1.7-1.1,2.6-1.6l0.8-0.5l0.3-0.2c2.8-1.7,5.7-3.5,8.5-5.4l4.2-2.9l0.7-0.4
	c0.7-0.4,1.7-1.2,2.3-1.7l2.9-2.3l3.6-2.8c1.7-1.3,3.2-2.8,4.7-4.1l1.5-1.4c1.6-1.5,3.2-2.9,4.6-4.4l3-3.1l3-3.1
	c0.4-0.5,0.8-0.9,1.2-1.4l0.7-0.9l3.6-4.4c3.1-3.7,6.1-7.9,9.4-13.3c3.6-5.9,6.5-12.4,8.7-19.9c1-3.3,1.8-6.7,2.4-10.1
	c0.6-3.4,1.1-7.2,1.3-11.9c0.2-3.8,0.2-7.3-0.2-10.6c-0.4-3.7-1.2-7.5-2.4-11.8c-0.8-3-2-6.1-3.6-9.8c-1.7-4-3.5-7.3-5.3-10.2
	c-4.1-6.6-9.8-12-14.8-16.3c-3.8-3.3-7.9-6.6-11.4-9.5l-2.3-1.8c-6.4-5.2-13.1-10.2-19.6-15.1l-0.4-0.3l-3.3-2.5l-5-3.8
	c-3.2-2.4-6.4-5.5-9.7-9.3c-3.5-4.3-6.7-9.1-9.8-14.7c-0.8-1.4-1.5-2.8-2.2-4.3l-0.6-1.2l-0.7-1.5c-0.8-1.9-1.7-3.9-2.3-5.8
	c-0.3-0.9-0.6-1.8-1-2.7c-0.4-0.9-0.6-1.9-0.9-2.9l-0.2-0.6l-0.2-0.6c-0.4-1.4-0.8-2.8-1.2-4.2l-0.1-0.4l-0.4-1.7l-0.4-1.3
	c-0.2-0.9-0.4-1.7-0.7-2.6c-0.2-0.8-0.7-1.6-1-2.3c-0.3-0.6-1.5-1.7-2.2-1.9l-0.3-0.1c-0.6-0.2-1.2-0.5-1.9-0.5
	C319.3,78.6,318.9,78.6,318.5,78.6L318.5,78.6L318.5,78.6z"/>
</svg>
