<?xml version="1.0" encoding="utf-8"?>
<!-- Generator: Adobe Illustrator 25.2.1, SVG Export Plug-In . SVG Version: 6.00 Build 0)  -->
<svg version="1.1" id="图层_1" xmlns="http://www.w3.org/2000/svg" xmlns:xlink="http://www.w3.org/1999/xlink" x="0px" y="0px"
	 viewBox="0 0 315 318" style="enable-background:new 0 0 315 318;" xml:space="preserve">
<style type="text/css">
	.st0{fill:#B3B3B3;}
	.st1{fill:none;stroke:#000000;stroke-width:4;stroke-miterlimit:10;}
</style>
<g>
	<g>
		<g>
			<path class="st0" d="M29.3,306.3c-3,0-5.4-2.6-5.4-5.9V84.7c0-0.4,0.3-0.8,0.7-0.8h95c4.9,0,8.9,4.4,8.9,9.7v30h124.6
				c3,0,5.4,2.6,5.4,5.9v170.9c0,3.2-2.4,5.9-5.4,5.9H29.3z"/>
			<path d="M119.6,84.8c4.4,0,8.1,4,8.1,8.8v29.1v1.8h1.8h123.8c2.5,0,4.5,2.2,4.5,5v170.9c0,2.8-2,5-4.5,5H29.3
				c-2.5,0-4.5-2.2-4.5-5V124v-1.3l0-38H119.6 M119.6,83h-95c-0.9,0-1.6,0.8-1.6,1.7v38v1.3v176.4c0,3.7,2.8,6.8,6.3,6.8h223.9
				c3.5,0,6.3-3,6.3-6.8V129.5c0-3.7-2.8-6.8-6.3-6.8H129.4V93.6C129.4,87.7,125,83,119.6,83L119.6,83z"/>
		</g>
		<g>
			<rect x="23.9" y="122.4" width="105.1" height="2"/>
		</g>
	</g>
	<g>
		<path d="M310.2,314.3l4.6-3c0.2-0.1,0.2-0.4,0.1-0.6l-73.5-114.3l-5.3,3.4l73.5,114.3C309.8,314.4,310,314.4,310.2,314.3z"/>
		<circle class="st1" cx="196.6" cy="130.7" r="81.5"/>
	</g>
</g>
</svg>
